<?xml version="1.0" standalone="no"?><!DOCTYPE svg PUBLIC "-//W3C//DTD SVG 1.1//EN" "http://www.w3.org/Graphics/SVG/1.1/DTD/svg11.dtd"><svg t="1650939756173" class="icon" viewBox="0 0 1024 1024" version="1.1" xmlns="http://www.w3.org/2000/svg" p-id="6490" xmlns:xlink="http://www.w3.org/1999/xlink" width="200" height="200"><defs><style type="text/css"></style></defs><path d="M871.95 725.535c22.092 0 40 17.908 40 40 0 21.87-17.551 39.641-39.338 39.994l-0.661 0.006H663.764c-22.092 0-40-17.909-40-40 0-21.87 17.552-39.642 39.338-39.995l0.662-0.005H871.95z" fill="#e6cf15" p-id="6491"></path><path d="M807.857 869.646c0 22.09-17.908 40-40 40-21.87 0-39.641-17.553-39.994-39.339l-0.006-0.661V661.458c0-22.091 17.909-40 40-40 21.87 0 39.642 17.552 39.995 39.339l0.005 0.661v208.188zM476.438 114c-125.403 0-227.063 101.66-227.063 227.064 0 125.403 101.66 227.063 227.063 227.063 125.404 0 227.064-101.66 227.064-227.063C703.502 215.66 601.842 114 476.438 114z m0 80c81.221 0 147.064 65.843 147.064 147.064 0 81.22-65.843 147.063-147.064 147.063-81.22 0-147.063-65.842-147.063-147.063 0-81.221 65.842-147.064 147.063-147.064z" fill="#e6cf15" p-id="6492"></path><path d="M475.951 488.127c77.36 0 151.176 24.272 212.632 68.635 17.911 12.93 21.95 37.933 9.02 55.845s-37.933 21.95-55.845 9.02c-47.938-34.605-105.4-53.5-165.807-53.5-155.24 0-281.405 124.8-283.913 279.735l-0.038 4.704c0 22.091-17.909 40-40 40s-40-17.909-40-40c0-201.26 162.933-364.439 363.951-364.439z" fill="#e6cf15" p-id="6493"></path></svg>