<?xml version="1.0" standalone="no"?><!DOCTYPE svg PUBLIC "-//W3C//DTD SVG 1.1//EN" "http://www.w3.org/Graphics/SVG/1.1/DTD/svg11.dtd"><svg t="1650940204422" class="icon" viewBox="0 0 1427 1024" version="1.1" xmlns="http://www.w3.org/2000/svg" p-id="11495" xmlns:xlink="http://www.w3.org/1999/xlink" width="278.7109375" height="200"><defs><style type="text/css"></style></defs><path d="M275.821156 67.001091h161.919302C455.607415 67.001091 469.007634 81.517993 469.007634 98.268266v902.281352H244.55398V98.268266c0-16.750273 14.516903-31.267176 31.267176-31.267175z" fill="#8DCAF5" p-id="11496"></path><path d="M492.458015 1024H222.220284V98.268266c0-30.150491 24.567067-53.600872 53.600872-53.600872h161.919302C467.890949 44.667394 491.34133 69.23446 491.34133 98.268266v925.731734z m-225.570338-44.667394h180.902945V98.268266c0-5.583424-4.466739-8.933479-8.933479-8.933479H275.821156c-5.583424 0-8.933479 4.466739-8.933479 8.933479v881.06434z" fill="#131313" p-id="11497"></path><path d="M635.393675 292.571429h170.852781c15.633588 0 26.800436 12.283533 26.800436 27.917121v681.177753H607.476554v-681.177753c0-15.633588 12.283533-27.917121 27.917121-27.917121z" fill="#FB7E7E" p-id="11498"></path><path d="M855.380589 1022.883315H585.142857v-703.51145c0-27.917121 22.333697-50.250818 50.250818-50.250818h170.852781c27.917121 0 50.250818 22.333697 50.250818 50.250818v703.51145z m-225.570338-44.667394h180.902944v-658.844056c0-2.23337-2.23337-5.583424-5.583424-5.583424H635.393675c-2.23337 0-5.583424 2.23337-5.583424 5.583424v658.844056z" fill="#131313" p-id="11499"></path><path d="M989.38277 513.675027h179.786259c12.283533 0 22.333697 10.050164 22.333697 22.333697v465.657579H967.049073V536.008724c0-12.283533 10.050164-22.333697 22.333697-22.333697z" fill="#87C1EA" p-id="11500"></path><path d="M1213.836423 1024H944.715376V536.008724c0-24.567067 20.100327-44.667394 44.667394-44.667394h179.786259c24.567067 0 44.667394 20.100327 44.667394 44.667394v487.991276z m-224.453653-44.667394h179.786259V536.008724H988.266085l1.116685 443.323882z" fill="#131313" p-id="11501"></path><path d="M1404.789531 1024H22.333697c-12.283533 0-22.333697-10.050164-22.333697-22.333697s10.050164-22.333697 22.333697-22.333697h1382.455834c12.283533 0 22.333697 10.050164 22.333697 22.333697s-10.050164 22.333697-22.333697 22.333697zM1155.768811 303.738277c-5.583424 0-11.166848-2.23337-15.633587-6.700109L879.947655 37.967285c-8.933479-8.933479-8.933479-22.333697 0-31.267176 8.933479-8.933479 22.333697-8.933479 31.267176 0l259.070883 259.070883c8.933479 8.933479 8.933479 22.333697 0 31.267176-3.350055 4.466739-8.933479 6.700109-14.516903 6.700109z" fill="#131313" p-id="11502"></path><path d="M1182.569248 314.905125H1011.716467c-12.283533 0-22.333697-10.050164-22.333697-22.333696s10.050164-22.333697 22.333697-22.333697h126.185387V144.052345c0-12.283533 10.050164-22.333697 22.333697-22.333697s22.333697 10.050164 22.333697 22.333697v170.85278z" fill="#131313" p-id="11503"></path><path d="M1055.267176 1024c-12.283533 0-22.333697-10.050164-22.333697-22.333697V589.609597c0-12.283533 10.050164-22.333697 22.333697-22.333697s22.333697 10.050164 22.333696 22.333697v412.056706c0 12.283533-10.050164 22.333697-22.333696 22.333697z" fill="#131313" p-id="11504"></path><path d="M697.928026 1024c-12.283533 0-22.333697-10.050164-22.333697-22.333697v-636.51036c0-12.283533 10.050164-22.333697 22.333697-22.333697s22.333697 10.050164 22.333697 22.333697v635.393675c0 13.400218-10.050164 23.450382-22.333697 23.450382z" fill="#131313" p-id="11505"></path><path d="M340.588877 1024c-12.283533 0-22.333697-10.050164-22.333697-22.333697V144.052345c0-12.283533 10.050164-22.333697 22.333697-22.333697s22.333697 10.050164 22.333697 22.333697v857.613958c0 12.283533-10.050164 22.333697-22.333697 22.333697z" fill="#131313" p-id="11506"></path></svg>