<?xml version="1.0" standalone="no"?><!DOCTYPE svg PUBLIC "-//W3C//DTD SVG 1.1//EN" "http://www.w3.org/Graphics/SVG/1.1/DTD/svg11.dtd"><svg t="1650939811416" class="icon" viewBox="0 0 1024 1024" version="1.1" xmlns="http://www.w3.org/2000/svg" p-id="6709" xmlns:xlink="http://www.w3.org/1999/xlink" width="200" height="200"><defs><style type="text/css"></style></defs><path d="M551.717 519.753c83.894 0 161.938 24.43 228.205 65.975a237.495 237.495 0 0 0-158.94 405.211H160.915a40.082 40.082 0 0 1-40.155-40.228 431.397 431.397 0 0 1 430.958-430.958zM937.91 678.766a41.18 41.18 0 0 1 0 58.368l-70.949 71.021 70.949 70.949a41.253 41.253 0 0 1-58.295 58.295l-71.022-70.949-70.948 70.876a41.326 41.326 0 0 1-58.295-58.295l70.948-70.949-70.948-70.875a41.326 41.326 0 0 1 58.368-58.368l70.948 70.948 70.949-71.021c16.091-16.092 42.277-16.092 58.368 0zM551.79 5.486a257.097 257.097 0 0 1 256.877 256.877A257.17 257.17 0 0 1 551.79 519.241a257.17 257.17 0 0 1-256.878-256.878A257.097 257.097 0 0 1 551.717 5.486z" p-id="6710" fill="#ae1736"></path></svg>